<svg width="382.1" height="199.1" xmlns="http://www.w3.org/2000/svg" xml:space="preserve" version="1.1">
 <title>kevin logo black</title>

 <g>
  <title>Layer 1</title>
  <rect id="svg_1" height="199" width="38" y="0.1"/>
  <rect id="svg_2" height="37.5" width="136" transform="matrix(0.6644 -0.7474 0.7474 0.6644 -23.3285 74.6102)" y="44.5" x="3.4"/>
  <rect id="svg_3" height="111.2" width="38" transform="matrix(0.7354 -0.6776 0.6776 0.7354 -76.578 94.2627)" y="89.6" x="63.4"/>
  <rect id="svg_4" height="33" width="135.5" y="166.1" x="106.2"/>
  <polygon id="svg_5" points="241.8,199.1 241.8,166.1 254.5,199.1 "/>
  <polygon id="svg_6" points="311.4,0.1 311.4,33.1 324.2,0.1 "/>
  <path id="svg_7" d="m209.9,116.1c0,-11 0,-22 0,-33l12.8,33c-4.3,0 -8.6,0 -12.8,0z"/>
  <rect id="svg_8" height="33" width="86.6" y="83.1" x="123.3"/>
  <polygon id="svg_9" points="261.4,0.1 261.3,33.1 248.6,0.1 "/>
  <rect id="svg_10" height="33" width="50" y="0.1" x="261.4"/>
  <rect id="svg_11" height="12.6" width="7.2" transform="matrix(0.9377 -0.3475 0.3475 0.9377 7.339 92.8407)" y="19.7" x="258.9"/>
  <rect id="svg_12" height="7.1" width="12.4" transform="matrix(0.3475 -0.9377 0.9377 0.3475 177.9956 307.8752)" y="22.5" x="304"/>
  <rect id="svg_13" height="197.1" width="41.7" transform="matrix(0.9335 -0.3587 0.3587 0.9335 -19.0203 96.5272)" y="1" x="229.8"/>
  <path id="svg_14" d="m222.6,116.1c-5.5,-0.2 -11.1,-0.4 -16.6,-0.6l-10.4,-27l14.1,-5.4c4.4,11 8.7,22 12.9,33z"/>
  <rect id="svg_15" height="41.7" width="197" transform="matrix(0.3587 -0.9335 0.9335 0.3587 113.2547 363.7854)" y="78.6" x="222.9"/>
  <rect id="svg_16" height="53.8" width="39" y="145.3" x="266.5"/>
  <path id="svg_17" d="m376.3,15.1c-13,-3.4 -25.9,-6.8 -38.9,-10.2l0,-4.8c14.9,0 29.8,0 44.7,0c-2,5 -3.9,10 -5.8,15z"/>
  <rect id="svg_18" height="197.3" width="37.5" y="1.8" x="123.3"/>
  <rect id="svg_19" height="32.7" width="132.1" y="0.1" x="102.6"/>
  <path id="svg_20" d="m254.5,199.1c-5.5,-0.2 -11.1,-0.4 -16.6,-0.6l-10.4,-27l14.1,-5.4c4.3,11 8.6,22 12.9,33z"/>
  <polygon id="svg_21" points="264.9,0.1 264.9,32.9 252.1,0.1 "/>
  <polygon id="svg_22" points="307.9,0.1 307.9,32.8 320.7,0.1 "/>
 </g>
</svg>